<svg version="1.1" xmlns="http://www.w3.org/2000/svg" xmlns:xlink="http://www.w3.org/1999/xlink" width="700.99968" height="701.00008" viewBox="372.49984,135.49992,700.99968,701.00008"><defs><clipPath id="clip-1"><rect x="80.77033" y="29.38088" transform="scale(4.61184,4.61184)" width="152" height="152" id="clip-1" fill="none" fill-rule="nonzero"/></clipPath></defs><g id="document" fill="none" fill-rule="nonzero" stroke="#000000" stroke-width="0" stroke-linecap="butt" stroke-linejoin="miter" stroke-miterlimit="10" stroke-dasharray="" stroke-dashoffset="0" font-family="none" font-weight="none" font-size="none" text-anchor="none" style="mix-blend-mode: normal"><rect x="372.5" y="136.5" width="700" height="700" id="Shape 1 1" vector-effect="non-scaling-stroke"/></g><g fill="none" fill-rule="none" stroke="none" stroke-width="1" stroke-linecap="butt" stroke-linejoin="miter" stroke-miterlimit="10" stroke-dasharray="" stroke-dashoffset="0" font-family="none" font-weight="none" font-size="none" text-anchor="none" style="mix-blend-mode: normal"><g><g id="stage"><g id="layer1 1"><g clip-path="url(#clip-1)" id="Group 1"><path d="M889.5,349h-327v272.5h327z" id="Path 1" fill="#fae100" fill-rule="nonzero"/><path d="M916.66047,350.53175l-176.47029,-106.95461c-5.27825,-2.82983 -11.17403,-4.31069 -17.16297,-4.31069c-5.98848,0 -11.88426,1.48086 -17.16251,4.31069l-176.49658,106.95461c-4.41584,3.0678 -8.06611,7.11146 -10.66811,11.81692c-2.602,4.70592 -4.08609,9.94728 -4.33698,15.31823v216.84328c0.24996,5.37003 1.73359,10.61369 4.33605,15.31777c2.602,4.70408 6.25274,8.74405 10.66904,11.81093l176.47491,106.96245c5.27825,2.82706 11.17403,4.30746 17.16251,4.30746c5.98848,0 11.88426,-1.4804 17.16297,-4.30746l176.46891,-106.96245c4.41814,-3.06226 8.06611,-7.10685 10.6718,-11.81093c2.60108,-4.70408 4.08609,-9.94774 4.33513,-15.31777v-216.84328c-0.24904,-5.36957 -1.72944,-10.61 -4.32591,-15.31547c-2.60108,-4.70592 -6.24443,-8.75005 -10.65797,-11.81969zM873.46596,460.44809l-116.38491,71.98209c-2.35342,1.45642 -4.26088,0.31499 -4.26088,-2.50008v-48.98791h-64.59115c-1.33743,0.02998 -2.60892,0.58801 -3.53682,1.55235c-0.92744,0.96434 -1.43567,2.25657 -1.41399,3.59401v99.42763c0,2.84781 -1.91299,3.97264 -4.27149,2.52683l-41.12426,-25.12439c-1.25857,-0.87856 -2.299,-2.03428 -3.04151,-3.37771c-0.74251,-1.34343 -1.16726,-2.83905 -1.24105,-4.37203v-110.31296c-0.06687,-4.02844 1.46657,-7.91946 4.26411,-10.81892c2.79754,-2.89947 6.63091,-4.57126 10.65935,-4.64828h104.30234v-50.09152c0,-2.22798 1.49977,-3.10285 3.32606,-1.97248l117.31419,72.56365c1.04228,0.43213 1.93236,1.16449 2.56418,2.10346c0.62721,0.93943 0.95926,2.04397 0.95926,3.17387c0,1.12944 -0.33205,2.23398 -0.95926,3.17295c-0.63182,0.93943 -1.52191,1.67133 -2.56418,2.10392z" id="CompoundPath 1" fill="#007dff" fill-rule="evenodd"/></g></g></g></g></g></svg>