<?xml version="1.0" encoding="UTF-8"?>
<svg width="2500" height="2500" viewBox="0 0 2500 2500" xmlns="http://www.w3.org/2000/svg">
    <path id="Path-copy-2" fill="#000000" stroke="none" d="M 1250 351.5625 C 689.08197 351.5625 234.375 710.087891 234.375 1152.34375 C 234.375 1438.271606 424.472656 1689.160156 710.429688 1830.830078 C 694.873047 1884.482422 610.458984 2175.986328 607.099609 2198.886719 C 607.099609 2198.886719 605.078125 2216.09375 616.220703 2222.65625 C 627.36322 2229.21875 640.46875 2224.121094 640.46875 2224.121094 C 672.421875 2219.658203 1011.005859 1981.826172 1069.609375 1940.527344 C 1128.154297 1948.818359 1188.4375 1953.125 1250 1953.125 C 1810.917969 1953.125 2265.625 1594.609375 2265.625 1152.34375 C 2265.625 710.087891 1810.917969 351.5625 1250 351.5625 Z"/>
    <path id="Path-copy" fill="#ffffff" stroke="none" d="M 688.476563 1431.884766 C 656.162109 1431.884766 629.882813 1406.786987 629.882813 1375.927734 L 629.882813 1027.832031 L 538.457031 1027.832031 C 506.748047 1027.832031 480.957031 1002.089844 480.957031 970.458984 C 480.957031 938.828125 506.757782 913.085938 538.457031 913.085938 L 838.496094 913.085938 C 870.205078 913.085938 895.996094 938.828125 895.996094 970.458984 C 895.996094 1002.089844 870.195313 1027.832031 838.496094 1027.832031 L 747.070313 1027.832031 L 747.070313 1375.927734 C 747.070313 1406.786987 720.791016 1431.884766 688.476563 1431.884766 Z M 1202.265625 1431.123047 C 1177.832031 1431.123047 1159.140625 1421.201172 1153.505859 1405.244141 L 1124.492188 1329.287109 L 945.820313 1329.277344 L 916.787109 1405.283203 C 911.171875 1421.210938 892.490234 1431.123047 868.056641 1431.123047 C 855.204407 1431.13623 842.500427 1428.378174 830.810547 1423.037109 C 814.658203 1415.585815 799.130859 1395.097656 816.923828 1339.833984 L 957.080078 970.927734 C 966.953125 942.871094 996.943359 913.964844 1035.107422 913.095703 C 1073.378906 913.955078 1103.369141 942.871094 1113.261719 970.986328 L 1253.359375 1339.726563 C 1271.191406 1395.117188 1255.664063 1415.615234 1239.511719 1423.046875 C 1227.819092 1428.37854 1215.116455 1431.132813 1202.265625 1431.123047 C 1202.255859 1431.123047 1202.265625 1431.123047 1202.265625 1431.123047 Z M 1093.681641 1225.498047 L 1035.15625 1059.238281 L 976.63092 1225.498047 L 1093.681641 1225.498047 Z M 1347.65625 1423.339844 C 1316.689453 1423.339844 1291.503906 1399.238281 1291.503906 1369.628906 L 1291.503906 971.679688 C 1291.503906 939.365234 1318.339844 913.085938 1351.318359 913.085938 C 1384.296875 913.085938 1411.132813 939.365234 1411.132813 971.679688 L 1411.132813 1315.917969 L 1535.644531 1315.917969 C 1566.611328 1315.917969 1591.796875 1340.019531 1591.796875 1369.628906 C 1591.796875 1399.238281 1566.611328 1423.339844 1535.644531 1423.339844 L 1347.65625 1423.339844 Z M 1673.183594 1431.123047 C 1640.869141 1431.123047 1614.589844 1404.84375 1614.589844 1372.529297 L 1614.589844 971.679688 C 1614.589844 939.365234 1640.869141 913.085938 1673.183594 913.085938 C 1705.498047 913.085938 1731.777344 939.365234 1731.777344 971.679688 L 1731.777344 1097.617188 L 1895.253906 934.140625 C 1903.662109 925.732422 1915.214844 921.103516 1927.753784 921.103516 C 1942.382813 921.103516 1957.070435 927.412109 1968.076172 938.408203 C 1978.339844 948.662109 1984.462891 961.855469 1985.302734 975.556641 C 1986.152344 989.375 1981.552734 1002.041016 1972.372925 1011.230469 L 1838.847656 1144.736328 L 1983.076172 1335.810547 C 1992.482422 1348.192261 1996.534302 1363.827026 1994.326172 1379.21875 C 1992.216431 1394.620117 1984.029297 1408.536011 1971.591919 1417.861328 C 1961.459229 1425.56311 1949.075073 1429.718628 1936.347656 1429.6875 C 1917.937744 1429.773071 1900.575195 1421.133545 1889.541016 1406.396484 L 1752.128906 1224.326172 L 1731.796875 1244.658203 L 1731.796875 1372.500122 C 1731.759155 1404.857178 1705.540771 1431.079956 1673.183594 1431.123047 Z"/>
</svg>
